# xmcd
#
# Track frame offsets:
# 150
# 44429
# 83675
# 113380
# 139037
# 159297
# 192752
# 227823
# 263332
# 296117
#
# Disc length: 4339 seconds
#
# Revision: 0
# Processed by: cddbd v1.4PL0 Copyright (c) Steve Scherf et al.
# Submitted via: Axialis_AX_CDPlayer 2.6
#
DISCID=7810f10a
DTITLE=Eric Clapton - All The Best Blues
DYEAR=1900
DGENRE=
TTITLE0=Wonderful Tonight
TTITLE1=River Of Tears
TTITLE2=Bell Bottom Blues
TTITLE3=Holly Mother
TTITLE4=Tears In Heaven
TTITLE5=Can't Find My Way Home
TTITLE6=Change The World
TTITLE7=Old Love
TTITLE8=Have You Ever Loved A Woman
TTITLE9=Hey Jude
EXTD=
EXTT0=
EXTT1=
EXTT2=
EXTT3=
EXTT4=
EXTT5=
EXTT6=
EXTT7=
EXTT8=
EXTT9=
PLAYORDER=
